<?xml version="1.0" encoding="utf-8"?>
<!-- Generator: Adobe Illustrator 18.1.1, SVG Export Plug-In . SVG Version: 6.00 Build 0)  -->
<svg version="1.1" id="Layer_1" xmlns="http://www.w3.org/2000/svg" xmlns:xlink="http://www.w3.org/1999/xlink" x="0px" y="0px"
	 viewBox="0 0 5627.3 1920" enable-background="new 0 0 5627.3 1920" xml:space="preserve">
<g>
	<path fill="#FFFFFF" d="M1013,1013.2c-55.4-53.4-129.2-80.3-203.9-80.3l0,0c-74.7,0-148.5,26.9-203.9,80.3l0,0
		c-55.4,53.4-94.1,133.2-96.1,247.6l0,0l0,0l-102.2-1.5c1.5-137.8,51.4-247.1,127.6-320.3l0,0c75.8-72.7,175.9-108.8,275.1-108.8
		l0,0c99.2,0,198.8,36.1,275.1,108.8l0,0c75.8,72.7,125.6,182.5,127.6,320.3l0,0l-102.7,1.5C1107,1145.9,1067.9,1066.5,1013,1013.2
		L1013,1013.2z"/>
	<path fill="#FFFFFF" d="M744.5,631.8l-1-21.9c-1.5-47.3-32.5-86.4-53.9-108.8l0,0c-7.1-7.6-13.2-12.7-17.3-17.8l0,0l0,0l-8.1-9.2
		l-0.5-1C641.3,441.6,628,403,628,361.3l0,0c0-105.8,84.4-191.7,189.2-191.7l0,0c0.5,0,1,0,1.5,0l0,0c0.5,0,1,0,1.5,0l0,0v22.9v22.9
		v-22.9v-22.9c104.7,0,189.2,85.9,189.2,191.7l0,0c0,41.7-13.2,80.3-35.6,111.9l0,0l-0.5,1l-8.1,9.2l0,0
		c-4.6,5.1-10.2,10.2-17.3,17.8l0,0c-7.1,7.6-15.3,16.8-23.4,28l0,0c-15.8,21.9-29.5,49.3-31,81.4l0,0l-1,21.9h-148V631.8z
		 M849.2,585.5c9.7-54.4,43.2-94.1,64.1-116.4l0,0c7.6-8.1,14.2-14.2,16.3-16.8l0,0l6.1-7.1c16.8-23.9,26.4-52.9,26.4-84.4l0,0
		c0-80.8-64.6-145.4-142.9-145.9l0,0h-0.5l0,0h-1h-1c-0.5,0-0.5,0-0.5,0l0,0c-78.8,0-142.9,65.1-142.9,145.9l0,0
		c0,31.5,9.7,60.5,26.4,84.4l0,0l6.1,7.1c2,2.5,8.6,8.6,16.3,16.8l0,0c8.1,8.6,17.8,19.3,27.5,32.5l0,0c15.8,21.9,31,49.8,37.1,83.9
		l0,0H849.2L849.2,585.5z"/>
	<path fill="#FFFFFF" d="M866.5,783.3l-105.3-26.9c-5.1-1.5-8.6-6.1-8.6-11.2l0,0c0-5.1,3.6-9.7,8.6-11.2l0,0l62-16.3l-62-16.3
		c-5.1-1.5-8.6-6.1-8.6-11.2l0,0c0-5.1,3.6-9.7,8.6-11.2l0,0l105.3-26.9l0,0c6.1-1.5,12.2,2,14.2,8.1l0,0c1.5,6.1-2,12.2-8.1,14.2
		l0,0l-62,16.3l62,16.3c5.1,1.5,8.6,6.1,8.6,11.2l0,0c0,5.1-3.6,9.7-8.6,11.2l0,0l-62,16.3l62,16.3c6.1,1.5,9.7,7.6,8.1,14.2l0,0
		c-1.5,5.1-6.1,8.6-11.2,8.6l0,0C868.6,783.8,867.5,783.3,866.5,783.3L866.5,783.3z"/>
	<path fill="#FFFFFF" d="M757.2,1302.5h98.1l-64.1,353.4h173.4v82.9H679.9L757.2,1302.5z"/>
	<path fill="#FFFFFF" d="M1109.6,1279.1h98.1v181h1c10.2-14.2,23.4-25.4,38.6-33.1c14.7-7.6,33.1-12.2,51.4-12.2
		c62.5,0,110.8,43.2,110.8,139.3v184.6h-98.1v-173.9c0-41.2-14.2-69.7-50.8-69.7c-25.9,0-42.2,16.8-49.3,35.1
		c-2.5,5.6-3.1,14.2-3.1,21.4v187.6h-98.1v-460.2H1109.6z"/>
	<path fill="#FFFFFF" d="M1643.1,1461.4c33.9-3.2,72.6-6.5,116.2-6.5c77.5,0,134,12.9,171.1,35.5c38.7,24.2,59.7,56.5,59.7,103.3
		c0,46.8-22.6,85.6-61.3,111.4c-40.4,27.4-104.9,42-187.3,42c-38.7,0-71-1.6-98.5-3.2V1461.4z M1698,1716.5
		c14.5,1.6,33.9,1.6,54.9,1.6c116.2,0,179.2-45.2,179.2-122.7c0-67.8-54.9-111.4-171.1-111.4c-27.4,0-50,1.6-63,3.2V1716.5z"/>
	<path fill="#FFFFFF" d="M2117.7,1655.2l-43.6,90.4h-56.5l143.7-287.3h64.6l143.7,287.3h-58.1l-45.2-90.4H2117.7z M2256.5,1626.1
		l-42-82.3c-9.7-19.4-16.1-35.5-22.6-53.3h-1.6c-6.5,16.1-12.9,33.9-21,51.7l-42,83.9L2256.5,1626.1L2256.5,1626.1z"/>
	<path fill="#FFFFFF" d="M2492.2,1745.6L2355,1458.2h59.7l66.2,142.1c17.8,38.7,32.3,74.3,45.2,108.2h1.6
		c11.3-33.9,29.1-69.4,48.4-106.5l71-142.1h58.1l-150.1,287.3h-63V1745.6z"/>
	<path fill="#FFFFFF" d="M2802.1,1458.2v287.3h-54.9v-287.3H2802.1z"/>
	<path fill="#FFFFFF" d="M2897.4,1461.4c32.3-3.2,72.6-6.5,116.2-6.5c77.5,0,134,12.9,171.1,35.5c38.7,24.2,59.7,56.5,59.7,103.3
		c0,46.8-22.6,85.6-61.3,111.4c-40.4,27.4-104.9,42-187.3,42c-38.7,0-71-1.6-98.5-3.2V1461.4z M2950.6,1716.5
		c14.5,1.6,33.9,1.6,54.9,1.6c116.2,0,179.2-45.2,179.2-122.7c0-67.8-54.9-111.4-171.1-111.4c-27.4,0-50,1.6-63,3.2V1716.5z"/>
	<path fill="#FFFFFF" d="M3444.6,1458.2h54.9v256.7h179.2v30.7h-234.1V1458.2z"/>
	<path fill="#FFFFFF" d="M3725.5,1723c0-16.1,16.1-27.4,37.1-27.4c22.6,0,37.1,11.3,37.1,27.4c0,16.1-14.5,27.4-38.7,27.4
		C3740,1750.4,3725.5,1739.1,3725.5,1723z"/>
	<path fill="#FFFFFF" d="M4056.4,1458.2v121.1h203.4v-121.1h54.9v287.3h-54.9V1610h-203.4v135.6h-54.9v-287.3H4056.4z"/>
	<path fill="#FFFFFF" d="M4768.3,1598.7c0,98.5-88.8,151.7-195.3,151.7c-111.4,0-188.9-59.7-188.9-146.9
		c0-92,82.3-151.7,195.3-151.7C4694,1451.8,4768.3,1513.1,4768.3,1598.7z M4440.6,1603.5c0,61.3,48.4,116.2,135.6,116.2
		c85.6,0,135.6-54.9,135.6-119.5c0-58.1-43.6-117.8-134-117.8C4485.8,1482.4,4440.6,1540.5,4440.6,1603.5z"/>
	<path fill="#FFFFFF" d="M4915.2,1745.6v-122.7l-134-166.3h63l59.7,79.1c16.1,21,29.1,38.7,42,59.7h1.6c11.3-19.4,25.8-37.1,42-59.7
		l61.3-79.1h61.3l-140.4,164.7v122.7h-56.5V1745.6z"/>
	<path fill="#FFFFFF" d="M5260.6,1488.9h-127.5v-32.3h311.6v32.3h-129.1v256.7h-54.9V1488.9z"/>
	<path fill="#FFFFFF" d="M507.5,1279.1h-98.1v170.8h-1.5c-14.2-21.4-44.2-35.6-83.4-35.6c-75.8,0-142.4,62-141.9,168.8
		c0,93.1,54.4,149,123.6,155.1h202.4L507.5,1279.1z M282.3,1580.1c0-49.8,22.4-90,68.1-90c30.5,0,51.9,21.9,57.5,47.8
		c1.5,5.6,1.5,12.7,1.5,18.3v41.2c0,7.6-0.5,15.8-2,22.9c-6.1,28-29,47.3-57.5,47.3C309.2,1667.1,282.3,1633.5,282.3,1580.1z"/>
</g>
</svg>
