<?xml version="1.0" encoding="utf-8"?>
<!-- Generator: Adobe Illustrator 18.1.1, SVG Export Plug-In . SVG Version: 6.00 Build 0)  -->
<svg version="1.1" id="Layer_1" xmlns="http://www.w3.org/2000/svg" xmlns:xlink="http://www.w3.org/1999/xlink" x="0px" y="0px"
	 viewBox="734.8 360.8 1038.1 1146.1" enable-background="new 734.8 360.8 1038.1 1146.1" xml:space="preserve">
<g id="Board_2">
	<g>
		
			<rect x="802.8" y="511" transform="matrix(-0.9848 0.1736 -0.1736 -0.9848 2320.0364 1410.1699)" fill="#FFFFFF" stroke="#000000" stroke-width="6" stroke-miterlimit="10" width="591.2" height="591.2"/>
		<g>
			<path fill="none" stroke="#EC008C" stroke-width="4" stroke-miterlimit="10" d="M877.7,662.4l-87,15.3
				c-6.5,1.1-12.8-3.2-13.9-9.7l-15.3-87c-1.1-6.5,3.2-12.8,9.7-13.9l87-15.3c6.5-1.1,12.8,3.2,13.9,9.7l15.3,87
				C888.6,655,884.2,661.2,877.7,662.4z"/>
			<path fill="none" stroke="#FFF200" stroke-width="4" stroke-miterlimit="10" d="M995.1,641.7l-87,15.3
				c-6.5,1.1-12.8-3.2-13.9-9.7l-15.3-87c-1.1-6.5,3.2-12.8,9.7-13.9l87-15.3c6.5-1.1,12.8,3.2,13.9,9.7l15.3,87
				C1006,634.3,1001.6,640.5,995.1,641.7z"/>
			<path fill="none" stroke="#00AEEF" stroke-width="4" stroke-miterlimit="10" d="M1112.1,621l-87,15.3c-6.5,1.1-12.8-3.2-13.9-9.7
				l-15.3-87c-1.1-6.5,3.2-12.8,9.7-13.9l87-15.3c6.5-1.1,12.8,3.2,13.9,9.7l15.3,87C1123,613.6,1118.6,619.9,1112.1,621z"/>
			<path fill="none" stroke="#EC008C" stroke-width="4" stroke-miterlimit="10" d="M1228.5,600.5l-87,15.3
				c-6.5,1.1-12.8-3.2-13.9-9.7l-15.3-87c-1.1-6.5,3.2-12.8,9.7-13.9l87-15.3c6.5-1.1,12.8,3.2,13.9,9.7l15.3,87
				C1239.4,593.1,1235,599.4,1228.5,600.5z"/>
			<path fill="none" stroke="#00A79D" stroke-width="4" stroke-miterlimit="10" d="M1344.4,580.1l-87,15.3
				c-6.5,1.1-12.8-3.2-13.9-9.7l-15.3-87c-1.1-6.5,3.2-12.8,9.7-13.9l87-15.3c6.5-1.1,12.8,3.2,13.9,9.7l15.3,87
				C1355.3,572.7,1350.9,578.9,1344.4,580.1z"/>
			<path fill="none" stroke="#FFF200" stroke-width="4" stroke-miterlimit="10" d="M898.2,778.8l-87,15.3
				c-6.5,1.1-12.8-3.2-13.9-9.7l-15.3-87c-1.1-6.5,3.2-12.8,9.7-13.9l87-15.3c6.5-1.1,12.8,3.2,13.9,9.7l15.3,87
				C909.1,771.4,904.7,777.7,898.2,778.8z"/>
			<path fill="none" stroke="#EC008C" stroke-width="4" stroke-miterlimit="10" d="M1015.6,758.1l-87,15.3
				c-6.5,1.1-12.8-3.2-13.9-9.7l-15.3-87c-1.1-6.5,3.2-12.8,9.7-13.9l87-15.3c6.5-1.1,12.8,3.2,13.9,9.7l15.3,87
				C1026.5,750.7,1022.1,757,1015.6,758.1z"/>
			<path fill="none" stroke="#EC008C" stroke-width="4" stroke-miterlimit="10" d="M1132.6,737.5l-87,15.3
				c-6.5,1.1-12.8-3.2-13.9-9.7l-15.3-87c-1.1-6.5,3.2-12.8,9.7-13.9l87-15.3c6.5-1.1,12.8,3.2,13.9,9.7l15.3,87
				C1143.5,730.1,1139.1,736.4,1132.6,737.5z"/>
			<path fill="none" stroke="#FFF200" stroke-width="4" stroke-miterlimit="10" d="M1249,717l-87,15.3c-6.5,1.1-12.8-3.2-13.9-9.7
				l-15.3-87c-1.1-6.5,3.2-12.8,9.7-13.9l87-15.3c6.5-1.1,12.8,3.2,13.9,9.7l15.3,87C1259.9,709.6,1255.5,715.8,1249,717z"/>
			<path fill="none" stroke="#EC008C" stroke-width="4" stroke-miterlimit="10" d="M1364.9,696.5l-87,15.3
				c-6.5,1.1-12.8-3.2-13.9-9.7l-15.3-87c-1.1-6.5,3.2-12.8,9.7-13.9l87-15.3c6.5-1.1,12.8,3.2,13.9,9.7l15.3,87
				C1375.8,689.1,1371.4,695.4,1364.9,696.5z"/>
			<path fill="none" stroke="#00A79D" stroke-width="4" stroke-miterlimit="10" d="M918.9,896.2l-87,15.3
				c-6.5,1.1-12.8-3.2-13.9-9.7l-15.3-87c-1.1-6.5,3.2-12.8,9.7-13.9l87-15.3c6.5-1.1,12.8,3.2,13.9,9.7l15.3,87
				C929.8,888.8,925.4,895,918.9,896.2z"/>
			<path fill="none" stroke="#00AEEF" stroke-width="4" stroke-miterlimit="10" d="M1036.3,875.5l-87,15.3
				c-6.5,1.1-12.8-3.2-13.9-9.7l-15.3-87c-1.1-6.5,3.2-12.8,9.7-13.9l87-15.3c6.5-1.1,12.8,3.2,13.9,9.7l15.3,87
				C1047.2,868.1,1042.8,874.4,1036.3,875.5z"/>
			<path fill="none" stroke="#00A79D" stroke-width="4" stroke-miterlimit="10" d="M1153.3,854.9l-87,15.3
				c-6.5,1.1-12.8-3.2-13.9-9.7l-15.3-87c-1.1-6.5,3.2-12.8,9.7-13.9l87-15.3c6.5-1.1,12.8,3.2,13.9,9.7l15.3,87
				C1164.2,847.5,1159.8,853.7,1153.3,854.9z"/>
			<path fill="none" stroke="#EC008C" stroke-width="4" stroke-miterlimit="10" d="M1269.7,834.3l-87,15.3
				c-6.5,1.1-12.8-3.2-13.9-9.7l-15.3-87c-1.1-6.5,3.2-12.8,9.7-13.9l87-15.3c6.5-1.1,12.8,3.2,13.9,9.7l15.3,87
				C1280.6,826.9,1276.2,833.2,1269.7,834.3z"/>
			<path fill="none" stroke="#FFF200" stroke-width="4" stroke-miterlimit="10" d="M1385.6,813.9l-87,15.3
				c-6.5,1.1-12.8-3.2-13.9-9.7l-15.3-87c-1.1-6.5,3.2-12.8,9.7-13.9l87-15.3c6.5-1.1,12.8,3.2,13.9,9.7l15.3,87
				C1396.5,806.5,1392.1,812.8,1385.6,813.9z"/>
			<path fill="none" stroke="#EC008C" stroke-width="4" stroke-miterlimit="10" d="M939.5,1012.7l-87,15.3
				c-6.5,1.1-12.8-3.2-13.9-9.7l-15.3-87c-1.1-6.5,3.2-12.8,9.7-13.9l87-15.3c6.5-1.1,12.8,3.2,13.9,9.7l15.3,87
				C950.4,1005.3,946,1011.5,939.5,1012.7z"/>
			<path fill="none" stroke="#FFF200" stroke-width="4" stroke-miterlimit="10" d="M1056.9,992l-87,15.3c-6.5,1.1-12.8-3.2-13.9-9.7
				l-15.3-87c-1.1-6.5,3.2-12.8,9.7-13.9l87-15.3c6.5-1.1,12.8,3.2,13.9,9.7l15.3,87C1067.7,984.6,1063.4,990.8,1056.9,992z"/>
			<path fill="none" stroke="#EC008C" stroke-width="4" stroke-miterlimit="10" d="M1173.8,971.3l-87,15.3
				c-6.5,1.1-12.8-3.2-13.9-9.7l-15.3-87c-1.1-6.5,3.2-12.8,9.7-13.9l87-15.3c6.5-1.1,12.8,3.2,13.9,9.7l15.3,87
				C1184.7,963.9,1180.3,970.2,1173.8,971.3z"/>
			<path fill="none" stroke="#00A79D" stroke-width="4" stroke-miterlimit="10" d="M1290.2,950.8l-87,15.3
				c-6.5,1.1-12.8-3.2-13.9-9.7l-15.3-87c-1.1-6.5,3.2-12.8,9.7-13.9l87-15.3c6.5-1.1,12.8,3.2,13.9,9.7l15.3,87
				C1301.1,943.4,1296.7,949.7,1290.2,950.8z"/>
			<path fill="none" stroke="#EC008C" stroke-width="4" stroke-miterlimit="10" d="M1406.2,930.4l-87,15.3
				c-6.5,1.1-12.8-3.2-13.9-9.7l-15.3-87c-1.1-6.5,3.2-12.8,9.7-13.9l87-15.3c6.5-1.1,12.8,3.2,13.9,9.7l15.3,87
				C1417,923,1412.7,929.2,1406.2,930.4z"/>
			<path fill="none" stroke="#00A79D" stroke-width="4" stroke-miterlimit="10" d="M959.8,1128.2l-87,15.3
				c-6.5,1.1-12.8-3.2-13.9-9.7l-15.3-87c-1.1-6.5,3.2-12.8,9.7-13.9l87-15.3c6.5-1.1,12.8,3.2,13.9,9.7l15.3,87
				C970.7,1120.8,966.3,1127,959.8,1128.2z"/>
			<path fill="none" stroke="#EC008C" stroke-width="4" stroke-miterlimit="10" d="M1077.2,1107.5l-87,15.3
				c-6.5,1.1-12.8-3.2-13.9-9.7l-15.3-87c-1.1-6.5,3.2-12.8,9.7-13.9l87-15.3c6.5-1.1,12.8,3.2,13.9,9.7l15.3,87
				C1088.1,1100.1,1083.7,1106.3,1077.2,1107.5z"/>
			<path fill="none" stroke="#00AEEF" stroke-width="4" stroke-miterlimit="10" d="M1194.2,1086.8l-87,15.3
				c-6.5,1.1-12.8-3.2-13.9-9.7l-15.3-87c-1.1-6.5,3.2-12.8,9.7-13.9l87-15.3c6.5-1.1,12.8,3.2,13.9,9.7l15.3,87
				C1205.1,1079.4,1200.7,1085.7,1194.2,1086.8z"/>
			<path fill="none" stroke="#FFF200" stroke-width="4" stroke-miterlimit="10" d="M1310.6,1066.3l-87,15.3
				c-6.5,1.1-12.8-3.2-13.9-9.7l-15.3-87c-1.1-6.5,3.2-12.8,9.7-13.9l87-15.3c6.5-1.1,12.8,3.2,13.9,9.7l15.3,87
				C1321.5,1058.9,1317.1,1065.2,1310.6,1066.3z"/>
			<path fill="none" stroke="#00AEEF" stroke-width="4" stroke-miterlimit="10" d="M1426.5,1045.9l-87,15.3
				c-6.5,1.1-12.8-3.2-13.9-9.7l-15.3-87c-1.1-6.5,3.2-12.8,9.7-13.9l87-15.3c6.5-1.1,12.8,3.2,13.9,9.7l15.3,87
				C1437.4,1038.5,1433,1044.7,1426.5,1045.9z"/>
			<g enable-background="new    ">
				<path d="M855.2,651.5l-48.5,8.5l-14.4-81.6l48.5-8.5l3.1,17.7l-26.4,4.7l2.3,12.8l24.4-4.3l3.1,17.7l-24.4,4.3l2.7,15.4
					l26.4-4.7L855.2,651.5z"/>
			</g>
			<g enable-background="new    ">
				<path d="M941,583.4l8.7-32.7l23.9-4.2L955.6,601l5.6,31.9l-22.2,3.9l-5.5-31.2l-35.7-45.7l24-4.2L941,583.4z"/>
			</g>
			<g enable-background="new    ">
				<path d="M1091.5,609.9l-48.5,8.5l-14.4-81.6l48.5-8.5l3.1,17.7l-26.4,4.7l2.3,12.8l24.4-4.3l3.1,17.7l-24.4,4.3l2.7,15.4
					l26.4-4.7L1091.5,609.9z"/>
			</g>
			<g enable-background="new    ">
				<path d="M1194.3,591.7l-22,3.9L1161,532l-19.9,3.5l-3.2-18l61.8-10.9l3.2,18l-19.9,3.5L1194.3,591.7z"/>
			</g>
			<g enable-background="new    ">
				<path d="M1332.8,525.1c2.4,13.7,0.9,24.8-4.6,33.1c-5.5,8.3-14.7,13.6-27.7,15.9c-12.8,2.3-23.2,0.4-31.3-5.6
					c-8.1-6-13.4-15.8-15.8-29.6c-2.4-13.6-0.8-24.6,4.7-32.9c5.5-8.4,14.8-13.7,27.7-16c13-2.3,23.5-0.5,31.4,5.5
					C1325.2,501.5,1330.4,511.4,1332.8,525.1z M1276.6,535c2.8,15.8,9.7,22.7,20.6,20.8c5.6-1,9.4-3.6,11.4-7.9
					c2-4.3,2.3-10.5,0.9-18.6c-1.4-8.2-3.9-13.9-7.3-17.3c-3.4-3.4-7.8-4.6-13.3-3.7C1278,510.2,1273.8,519.1,1276.6,535z"/>
			</g>
			<g enable-background="new    ">
				<path d="M870.2,767.7l-6.7-14.6l-26.5,4.7l-1.4,16l-24.2,4.3l12.2-86.6l29.4-5.2l41.4,77.2L870.2,767.7z M855.7,735.8l-5.9-12.8
					c-1.3-2.8-3-6.5-5-11c-2-4.5-3.4-7.8-4.1-9.8c0,2-0.1,5.2-0.3,9.7c-0.2,4.5-0.9,13.5-2,26.9L855.7,735.8z"/>
			</g>
			<g enable-background="new    ">
				<path d="M1006.3,743.7l-22.2,3.9l-5.9-33.3l-25.6,4.5l5.9,33.3l-22.2,3.9l-14.4-81.6l22.2-3.9l5.3,30.3l25.6-4.5l-5.3-30.3
					l22.2-3.9L1006.3,743.7z"/>
			</g>
			<g enable-background="new    ">
				<path d="M1073.2,731.9l-14.4-81.6l22.2-3.9l14.4,81.6L1073.2,731.9z"/>
			</g>
			<g enable-background="new    ">
				<path d="M1230,646.9c1.6,9.1,0.2,16.6-4.3,22.5c-4.5,5.9-11.7,9.7-21.6,11.5l-6.2,1.1l4.8,27.1l-22,3.9l-14.4-81.6l28.2-5
					c10.3-1.8,18.4-0.9,24.4,2.7C1224.8,632.6,1228.5,638.6,1230,646.9z M1194.7,664l4-0.7c3.3-0.6,5.8-2,7.4-4.2
					c1.6-2.2,2.1-4.9,1.6-8.2c-1-5.5-4.5-7.7-10.6-6.6l-5.7,1L1194.7,664z"/>
			</g>
			<g enable-background="new    ">
				<path d="M1343.8,658.6c0.9,5.1,0.4,9.8-1.5,14.2c-1.9,4.4-5,8.1-9.5,11.1c-4.5,3-9.9,5.1-16.5,6.3c-5.4,1-10.1,1.4-13.9,1.3
					c-3.8-0.1-7.9-0.8-12.2-2l-3.5-19.6c4.6,1.4,9.3,2.3,14,2.7c4.8,0.4,9,0.3,12.8-0.4c3.3-0.6,5.6-1.6,6.9-3
					c1.3-1.4,1.8-3,1.5-4.8c-0.2-1.1-0.7-2-1.4-2.8c-0.8-0.7-1.9-1.4-3.4-2c-1.5-0.6-5.4-1.7-11.8-3.3c-5.7-1.5-10.2-3.1-13.2-4.9
					c-3.1-1.8-5.5-4.1-7.3-6.8c-1.8-2.7-3.1-6.1-3.8-10.1c-1.3-7.5,0.4-13.9,5.1-19c4.7-5.2,11.9-8.6,21.4-10.3
					c8.4-1.5,17.4-1.1,26.9,1.3l-3.8,18.2c-8.2-2.2-15.1-2.7-20.7-1.8c-2.9,0.5-4.9,1.4-6,2.6c-1.1,1.2-1.6,2.6-1.3,4.1
					c0.3,1.6,1.4,2.9,3.2,3.9c1.9,1,6.8,2.5,14.7,4.5c7.6,1.9,13.1,4.5,16.4,7.6C1340.7,648.8,1342.8,653.1,1343.8,658.6z"/>
			</g>
			<g enable-background="new    ">
				<path d="M898.3,884.6l-48.5,8.5l-14.4-81.6l48.5-8.5l3.1,17.7l-26.4,4.7l2.3,12.8l24.4-4.3l3.1,17.7l-24.4,4.3l2.7,15.4
					l26.4-4.7L898.3,884.6z"/>
			</g>
			<g enable-background="new    ">
				<path d="M1029.8,861.4l-24.9,4.4l-21.6-28.4l-5.8,5.1l4.8,27.3l-22.2,3.9l-14.4-81.6l22.2-3.9l6.2,35.4
					c0.7-2.4,2.4-6.3,4.9-11.6l12.7-28l24.1-4.3l-19.3,41.1L1029.8,861.4z"/>
			</g>
			<g enable-background="new    ">
				<path d="M1139.6,799.9c2.4,13.7,0.9,24.8-4.6,33.1c-5.5,8.3-14.7,13.6-27.7,15.9c-12.8,2.3-23.2,0.4-31.3-5.6
					c-8.1-6-13.4-15.8-15.8-29.6c-2.4-13.6-0.8-24.6,4.7-32.9c5.5-8.4,14.8-13.7,27.7-16c13-2.3,23.5-0.5,31.4,5.5
					C1132,776.2,1137.1,786.1,1139.6,799.9z M1083.4,809.7c2.8,15.8,9.7,22.7,20.6,20.8c5.6-1,9.4-3.6,11.4-7.9
					c2-4.3,2.3-10.5,0.9-18.6c-1.4-8.1-3.9-13.9-7.3-17.3c-3.4-3.4-7.8-4.6-13.3-3.7C1084.7,784.9,1080.6,793.8,1083.4,809.7z"/>
			</g>
			<g enable-background="new    ">
				<path d="M1248.9,822.8l-48.5,8.5l-14.4-81.6l48.5-8.5l3.1,17.7l-26.4,4.7l2.3,12.8l24.4-4.3l3.1,17.7l-24.4,4.3l2.7,15.4
					l26.4-4.7L1248.9,822.8z"/>
			</g>
			<g enable-background="new    ">
				<path d="M1363.1,745.2c1.6,9.1,0.2,16.6-4.3,22.5c-4.5,5.9-11.7,9.7-21.6,11.5l-6.2,1.1l4.8,27.1l-22,3.9l-14.4-81.6l28.2-5
					c10.3-1.8,18.4-0.9,24.4,2.7C1357.9,731,1361.6,736.9,1363.1,745.2z M1327.8,762.4l4-0.7c3.3-0.6,5.8-2,7.4-4.2
					c1.6-2.2,2.1-4.9,1.6-8.2c-1-5.5-4.5-7.7-10.6-6.6l-5.7,1L1327.8,762.4z"/>
			</g>
			<g enable-background="new    ">
				<path d="M919,973.2c0.9,5.1,0.4,9.8-1.5,14.2c-1.9,4.4-5,8.1-9.5,11.1c-4.5,3-9.9,5.1-16.5,6.3c-5.4,1-10.1,1.4-13.9,1.3
					c-3.8-0.1-7.9-0.8-12.2-2l-3.5-19.6c4.6,1.4,9.3,2.3,14,2.7c4.8,0.4,9,0.3,12.8-0.4c3.3-0.6,5.6-1.6,6.9-3
					c1.3-1.4,1.8-3,1.5-4.8c-0.2-1.1-0.7-2-1.4-2.8s-1.9-1.4-3.4-2c-1.5-0.6-5.4-1.7-11.8-3.3c-5.7-1.5-10.2-3.1-13.2-4.9
					c-3.1-1.8-5.5-4.1-7.3-6.8c-1.8-2.7-3.1-6.1-3.8-10.1c-1.3-7.5,0.4-13.9,5.1-19c4.7-5.2,11.9-8.6,21.4-10.3
					c8.4-1.5,17.4-1.1,26.9,1.3l-3.8,18.2c-8.2-2.2-15.1-2.7-20.7-1.8c-2.9,0.5-4.9,1.4-6,2.6c-1.1,1.2-1.6,2.6-1.3,4.1
					c0.3,1.6,1.4,2.9,3.2,3.9c1.9,1,6.8,2.5,14.7,4.5c7.6,1.9,13.1,4.5,16.4,7.6C915.8,963.3,918,967.7,919,973.2z"/>
			</g>
			<g enable-background="new    ">
				<path d="M1002.3,931.1l8.7-32.7l23.9-4.2l-18.1,54.5l5.6,31.9l-22.2,3.9l-5.5-31.2L959,907.5l24-4.2L1002.3,931.1z"/>
			</g>
			<g enable-background="new    ">
				<path d="M1138.4,960l-22,3.9l-11.2-63.6l-19.9,3.5l-3.2-18l61.8-10.9l3.2,18l-19.9,3.5L1138.4,960z"/>
			</g>
			<g enable-background="new    ">
				<path d="M1289.2,933.5l-25.5,4.5l-20.4-22.7l-11.2,28.3l-25,4.4l19.7-46.5l-32.5-35.4l24.4-4.3l19.2,22.6l9.7-27.7l25.2-4.4
					l-18.5,46.1L1289.2,933.5z"/>
			</g>
			<g enable-background="new    ">
				<path d="M1335.8,925.2l-14.4-81.6l22-3.9l11.2,63.8l31.4-5.5l3.1,17.8L1335.8,925.2z"/>
			</g>
			<g enable-background="new    ">
				<path d="M914.4,1037.2l24.7-4.3l-12.4,86.3l-26,4.6l-41-76.9l24.8-4.4l18.4,39.4c3.9,8.8,6.3,15,7.2,18.5c-0.2-2.7-0.3-6-0.2-10
					c0.1-4,0.2-7.2,0.4-9.6L914.4,1037.2z"/>
			</g>
			<g enable-background="new    ">
				<path d="M1071.9,1093.6l-28.9,5.1l-39.9-52.2l-0.5,0.1c2.3,8.9,3.9,15.8,4.7,20.5l6.5,36.8l-19.5,3.4l-14.4-81.6l28.8-5.1
					l39.7,51.5l0.3-0.1c-2-8.1-3.4-14.7-4.3-19.7l-6.5-36.9l19.6-3.5L1071.9,1093.6z"/>
			</g>
			<g enable-background="new    ">
				<path d="M1104.9,1003.6l28.5-5c11.1-2,19.6-1.8,25.6,0.6c6,2.3,9.6,7,10.8,14c0.8,4.6,0.3,8.7-1.5,12.3
					c-1.8,3.6-4.5,6.3-8.2,7.9l0.1,0.6c5.3,0.4,9.4,2,12.2,4.8s4.7,6.6,5.5,11.6c1.3,7.4-0.4,13.7-5.3,19c-4.8,5.2-12,8.7-21.6,10.4
					l-31.8,5.6L1104.9,1003.6z M1132.5,1031.1l6.6-1.2c3.2-0.6,5.5-1.6,7-3.2c1.5-1.6,2-3.7,1.6-6.3c-0.8-4.6-4.7-6.3-11.6-5
					l-6.2,1.1L1132.5,1031.1z M1135.3,1047.2l3,17.1l7.8-1.4c6.9-1.2,9.8-4.7,8.8-10.5c-0.5-2.7-1.8-4.6-3.9-5.8
					c-2.1-1.1-4.9-1.4-8.4-0.8L1135.3,1047.2z"/>
			</g>
			<g enable-background="new    ">
				<path d="M1253.3,1031l5.2,29.7l-22,3.9l-14.4-81.6l26.7-4.7c22.2-3.9,34.7,2.2,37.5,18.3c1.7,9.5-1.7,17.6-10,24.4l30,31.4
					l-25,4.4l-22.5-26.6L1253.3,1031z M1250.4,1014.4l4.1-0.7c7.7-1.4,11-5.4,9.8-12.3c-1-5.6-5.3-7.8-12.8-6.4l-4.4,0.8
					L1250.4,1014.4z"/>
			</g>
			<g enable-background="new    ">
				<path d="M1401.8,1035.4l-6.7-14.6l-26.5,4.7l-1.4,16l-24.2,4.3l12.2-86.6l29.4-5.2l41.4,77.2L1401.8,1035.4z M1387.3,1003.6
					l-5.9-12.8c-1.3-2.8-3-6.5-5-11c-2-4.5-3.4-7.8-4.1-9.8c0,2-0.1,5.2-0.3,9.7c-0.2,4.5-0.9,13.5-2,26.9L1387.3,1003.6z"/>
			</g>
		</g>
	</g>
</g>
<g id="Board_T1">
	<g>
		
			<rect x="1086.8" y="604.4" fill="#FFFFFF" stroke="#000000" stroke-width="6" stroke-miterlimit="10" width="591.2" height="591.2"/>
		<g>
			<path fill="none" stroke="#EC008C" stroke-width="4" stroke-miterlimit="10" d="M1190.1,719.7h-88.3c-6.6,0-12-5.4-12-12v-88.3
				c0-6.6,5.4-12,12-12h88.3c6.6,0,12,5.4,12,12v88.3C1202.1,714.3,1196.7,719.7,1190.1,719.7z"/>
			<path fill="none" stroke="#FFF200" stroke-width="4" stroke-miterlimit="10" d="M1309.3,719.7H1221c-6.6,0-12-5.4-12-12v-88.3
				c0-6.6,5.4-12,12-12h88.3c6.6,0,12,5.4,12,12v88.3C1321.3,714.3,1315.9,719.7,1309.3,719.7z"/>
			<path fill="none" stroke="#00AEEF" stroke-width="4" stroke-miterlimit="10" d="M1428.1,719.7h-88.3c-6.6,0-12-5.4-12-12v-88.3
				c0-6.6,5.4-12,12-12h88.3c6.6,0,12,5.4,12,12v88.3C1440.1,714.3,1434.7,719.7,1428.1,719.7z"/>
			<path fill="none" stroke="#EC008C" stroke-width="4" stroke-miterlimit="10" d="M1546.3,719.7H1458c-6.6,0-12-5.4-12-12v-88.3
				c0-6.6,5.4-12,12-12h88.3c6.6,0,12,5.4,12,12v88.3C1558.3,714.3,1552.9,719.7,1546.3,719.7z"/>
			<path fill="none" stroke="#00A79D" stroke-width="4" stroke-miterlimit="10" d="M1664,719.7h-88.3c-6.6,0-12-5.4-12-12v-88.3
				c0-6.6,5.4-12,12-12h88.3c6.6,0,12,5.4,12,12v88.3C1676,714.3,1670.6,719.7,1664,719.7z"/>
			<path fill="none" stroke="#FFF200" stroke-width="4" stroke-miterlimit="10" d="M1190.1,838h-88.3c-6.6,0-12-5.4-12-12v-88.3
				c0-6.6,5.4-12,12-12h88.3c6.6,0,12,5.4,12,12V826C1202.1,832.6,1196.7,838,1190.1,838z"/>
			<path fill="none" stroke="#EC008C" stroke-width="4" stroke-miterlimit="10" d="M1309.3,838H1221c-6.6,0-12-5.4-12-12v-88.3
				c0-6.6,5.4-12,12-12h88.3c6.6,0,12,5.4,12,12V826C1321.3,832.6,1315.9,838,1309.3,838z"/>
			<path fill="none" stroke="#EC008C" stroke-width="4" stroke-miterlimit="10" d="M1428.1,838h-88.3c-6.6,0-12-5.4-12-12v-88.3
				c0-6.6,5.4-12,12-12h88.3c6.6,0,12,5.4,12,12V826C1440.1,832.6,1434.7,838,1428.1,838z"/>
			<path fill="none" stroke="#FFF200" stroke-width="4" stroke-miterlimit="10" d="M1546.3,838H1458c-6.6,0-12-5.4-12-12v-88.3
				c0-6.6,5.4-12,12-12h88.3c6.6,0,12,5.4,12,12V826C1558.3,832.6,1552.9,838,1546.3,838z"/>
			<path fill="none" stroke="#EC008C" stroke-width="4" stroke-miterlimit="10" d="M1664,838h-88.3c-6.6,0-12-5.4-12-12v-88.3
				c0-6.6,5.4-12,12-12h88.3c6.6,0,12,5.4,12,12V826C1676,832.6,1670.6,838,1664,838z"/>
			<path fill="none" stroke="#00A79D" stroke-width="4" stroke-miterlimit="10" d="M1190.1,957.1h-88.3c-6.6,0-12-5.4-12-12v-88.3
				c0-6.6,5.4-12,12-12h88.3c6.6,0,12,5.4,12,12v88.3C1202.1,951.7,1196.7,957.1,1190.1,957.1z"/>
			<path fill="none" stroke="#00AEEF" stroke-width="4" stroke-miterlimit="10" d="M1309.3,957.1H1221c-6.6,0-12-5.4-12-12v-88.3
				c0-6.6,5.4-12,12-12h88.3c6.6,0,12,5.4,12,12v88.3C1321.3,951.7,1315.9,957.1,1309.3,957.1z"/>
			<path fill="none" stroke="#00A79D" stroke-width="4" stroke-miterlimit="10" d="M1428.1,957.1h-88.3c-6.6,0-12-5.4-12-12v-88.3
				c0-6.6,5.4-12,12-12h88.3c6.6,0,12,5.4,12,12v88.3C1440.1,951.7,1434.7,957.1,1428.1,957.1z"/>
			<path fill="none" stroke="#EC008C" stroke-width="4" stroke-miterlimit="10" d="M1546.3,957.1H1458c-6.6,0-12-5.4-12-12v-88.3
				c0-6.6,5.4-12,12-12h88.3c6.6,0,12,5.4,12,12v88.3C1558.3,951.7,1552.9,957.1,1546.3,957.1z"/>
			<path fill="none" stroke="#FFF200" stroke-width="4" stroke-miterlimit="10" d="M1664,957.1h-88.3c-6.6,0-12-5.4-12-12v-88.3
				c0-6.6,5.4-12,12-12h88.3c6.6,0,12,5.4,12,12v88.3C1676,951.7,1670.6,957.1,1664,957.1z"/>
			<path fill="none" stroke="#EC008C" stroke-width="4" stroke-miterlimit="10" d="M1190.1,1075.4h-88.3c-6.6,0-12-5.4-12-12v-88.3
				c0-6.6,5.4-12,12-12h88.3c6.6,0,12,5.4,12,12v88.3C1202.1,1070,1196.7,1075.4,1190.1,1075.4z"/>
			<path fill="none" stroke="#FFF200" stroke-width="4" stroke-miterlimit="10" d="M1309.3,1075.4H1221c-6.6,0-12-5.4-12-12v-88.3
				c0-6.6,5.4-12,12-12h88.3c6.6,0,12,5.4,12,12v88.3C1321.3,1070,1315.9,1075.4,1309.3,1075.4z"/>
			<path fill="none" stroke="#EC008C" stroke-width="4" stroke-miterlimit="10" d="M1428.1,1075.4h-88.3c-6.6,0-12-5.4-12-12v-88.3
				c0-6.6,5.4-12,12-12h88.3c6.6,0,12,5.4,12,12v88.3C1440.1,1070,1434.7,1075.4,1428.1,1075.4z"/>
			<path fill="none" stroke="#00A79D" stroke-width="4" stroke-miterlimit="10" d="M1546.3,1075.4H1458c-6.6,0-12-5.4-12-12v-88.3
				c0-6.6,5.4-12,12-12h88.3c6.6,0,12,5.4,12,12v88.3C1558.3,1070,1552.9,1075.4,1546.3,1075.4z"/>
			<path fill="none" stroke="#EC008C" stroke-width="4" stroke-miterlimit="10" d="M1664,1075.4h-88.3c-6.6,0-12-5.4-12-12v-88.3
				c0-6.6,5.4-12,12-12h88.3c6.6,0,12,5.4,12,12v88.3C1676,1070,1670.6,1075.4,1664,1075.4z"/>
			<path fill="none" stroke="#00A79D" stroke-width="4" stroke-miterlimit="10" d="M1190.1,1192.7h-88.3c-6.6,0-12-5.4-12-12v-88.3
				c0-6.6,5.4-12,12-12h88.3c6.6,0,12,5.4,12,12v88.3C1202.1,1187.3,1196.7,1192.7,1190.1,1192.7z"/>
			<path fill="none" stroke="#EC008C" stroke-width="4" stroke-miterlimit="10" d="M1309.3,1192.7H1221c-6.6,0-12-5.4-12-12v-88.3
				c0-6.6,5.4-12,12-12h88.3c6.6,0,12,5.4,12,12v88.3C1321.3,1187.3,1315.9,1192.7,1309.3,1192.7z"/>
			<path fill="none" stroke="#00AEEF" stroke-width="4" stroke-miterlimit="10" d="M1428.1,1192.7h-88.3c-6.6,0-12-5.4-12-12v-88.3
				c0-6.6,5.4-12,12-12h88.3c6.6,0,12,5.4,12,12v88.3C1440.1,1187.3,1434.7,1192.7,1428.1,1192.7z"/>
			<path fill="none" stroke="#FFF200" stroke-width="4" stroke-miterlimit="10" d="M1546.3,1192.7H1458c-6.6,0-12-5.4-12-12v-88.3
				c0-6.6,5.4-12,12-12h88.3c6.6,0,12,5.4,12,12v88.3C1558.3,1187.3,1552.9,1192.7,1546.3,1192.7z"/>
			<path fill="none" stroke="#00AEEF" stroke-width="4" stroke-miterlimit="10" d="M1664,1192.7h-88.3c-6.6,0-12-5.4-12-12v-88.3
				c0-6.6,5.4-12,12-12h88.3c6.6,0,12,5.4,12,12v88.3C1676,1187.3,1670.6,1192.7,1664,1192.7z"/>
			<g enable-background="new    ">
				<path d="M1181,622.2v49.9c0,10.8-3.1,19.2-9.2,25.2c-6.1,6-15,8.9-26.6,8.9c-11.3,0-20-2.9-26-8.7c-6.1-5.8-9.1-14.1-9.1-24.9
					v-50.4h22.5v48.6c0,5.9,1.1,10.1,3.3,12.8c2.2,2.6,5.4,4,9.7,4c4.6,0,7.9-1.3,9.9-3.9c2.1-2.6,3.1-6.9,3.1-12.9v-48.5H1181z"/>
			</g>
			<g enable-background="new    ">
				<path d="M1276.2,705.1h-22.4v-64.6h-20.2v-18.3h62.8v18.3h-20.2V705.1z"/>
			</g>
			<g enable-background="new    ">
				<path d="M1409.8,705.1h-49.2v-82.9h49.2v18H1383v13h24.8v18H1383v15.6h26.8V705.1z"/>
			</g>
			<g enable-background="new    ">
				<path d="M1497,675v30.2h-22.4v-82.9h27.2c22.5,0,33.8,8.2,33.8,24.5c0,9.6-4.7,17-14.1,22.3l24.1,36.1h-25.4l-17.6-30.2H1497z
					 M1497,658.1h4.2c7.8,0,11.7-3.5,11.7-10.4c0-5.7-3.8-8.6-11.5-8.6h-4.4V658.1z"/>
			</g>
			<g enable-background="new    ">
				<path d="M1637.1,622.2h25.1l-27.2,82.9h-26.4l-27-82.9h25.2l11.3,42c2.3,9.3,3.6,15.8,3.9,19.5c0.3-2.6,0.8-6,1.6-9.9
					c0.8-4,1.5-7.1,2.1-9.4L1637.1,622.2z"/>
			</g>
			<g enable-background="new    ">
				<path d="M1164.4,822.1l-4.1-15.5h-26.9l-4.2,15.5h-24.6l27-83.2h29.9l27.4,83.2H1164.4z M1155.7,788.2l-3.6-13.6
					c-0.8-3-1.8-6.9-3-11.7c-1.2-4.8-2-8.2-2.4-10.3c-0.3,1.9-1,5.1-2,9.5c-1,4.4-3.2,13.1-6.7,26.1H1155.7z"/>
			</g>
			<g enable-background="new    ">
				<path d="M1276.2,822.1h-22.4v-64.6h-20.2v-18.3h62.8v18.3h-20.2V822.1z"/>
			</g>
			<g enable-background="new    ">
				<path d="M1414.8,796.9c0,5.1-1.3,9.7-3.9,13.7c-2.6,4-6.4,7.1-11.3,9.3c-4.9,2.2-10.7,3.3-17.3,3.3c-5.5,0-10.1-0.4-13.9-1.2
					s-7.6-2.1-11.7-4.1v-20c4.3,2.2,8.7,3.9,13.3,5.1c4.6,1.2,8.8,1.8,12.7,1.8c3.3,0,5.8-0.6,7.3-1.7c1.5-1.2,2.3-2.6,2.3-4.4
					c0-1.1-0.3-2.1-0.9-3c-0.6-0.8-1.6-1.7-3-2.6c-1.4-0.9-5.1-2.6-11-5.3c-5.4-2.5-9.5-4.8-12.2-7.1c-2.7-2.3-4.7-5-6-7.9
					c-1.3-3-2-6.5-2-10.6c0-7.6,2.8-13.6,8.3-17.9c5.6-4.3,13.2-6.4,22.9-6.4c8.6,0,17.3,2,26.2,6l-6.9,17.3
					c-7.7-3.6-14.4-5.3-20.1-5.3c-2.9,0-5,0.5-6.3,1.5c-1.3,1-2,2.3-2,3.8c0,1.6,0.8,3.1,2.5,4.4c1.7,1.3,6.2,3.6,13.7,7
					c7.1,3.2,12.1,6.7,14.9,10.3C1413.4,786.7,1414.8,791.4,1414.8,796.9z"/>
			</g>
			<g enable-background="new    ">
				<path d="M1501.9,773.6h35.8v44.7c-9.7,3.3-20.4,5-32,5c-12.8,0-22.6-3.7-29.6-11.1c-7-7.4-10.5-18-10.5-31.7
					c0-13.4,3.8-23.8,11.5-31.2c7.6-7.4,18.3-11.2,32.1-11.2c5.2,0,10.1,0.5,14.8,1.5c4.6,1,8.7,2.2,12.1,3.7l-7.1,17.6
					c-6-2.9-12.5-4.4-19.7-4.4c-6.5,0-11.6,2.1-15.2,6.4c-3.6,4.3-5.4,10.3-5.4,18.2c0,7.7,1.6,13.7,4.8,17.7
					c3.2,4.1,7.9,6.1,14,6.1c3.3,0,6.4-0.3,9.2-1v-13h-14.8V773.6z"/>
			</g>
			<g enable-background="new    ">
				<path d="M1653.7,822.1h-64.6v-13.8l35.9-51h-35v-18.1h62.8V753l-35.9,51h36.8V822.1z"/>
			</g>
			<g enable-background="new    ">
				<path d="M1150.5,876.4c-5.3,0-9.5,2.2-12.5,6.5c-3,4.4-4.5,10.4-4.5,18.1c0,15.9,6.1,23.9,18.2,23.9c3.7,0,7.2-0.5,10.7-1.5
					c3.4-1,6.9-2.2,10.4-3.7v18.9c-6.9,3.1-14.7,4.6-23.5,4.6c-12.5,0-22.1-3.6-28.8-10.9c-6.7-7.3-10-17.7-10-31.5
					c0-8.6,1.6-16.1,4.8-22.6c3.2-6.5,7.9-11.5,13.9-15c6.1-3.5,13.2-5.2,21.4-5.2c9,0,17.5,1.9,25.7,5.8l-6.9,17.6
					c-3.1-1.4-6.1-2.6-9.2-3.6C1157.3,876.9,1154,876.4,1150.5,876.4z"/>
			</g>
			<g enable-background="new    ">
				<path d="M1305.4,942.1h-25.3l-16.4-31.7l-6.6,4v27.7h-22.5v-82.9h22.5v36c1.1-2.2,3.4-5.8,6.9-10.6l17.4-25.4h24.5l-26.1,37.1
					L1305.4,942.1z"/>
			</g>
			<g enable-background="new    ">
				<path d="M1424.1,900.6c0,13.9-3.4,24.5-10.3,31.8c-6.8,7.3-16.9,10.9-30,10.9c-13,0-23-3.6-29.9-10.9
					c-6.9-7.3-10.4-17.9-10.4-31.9c0-13.8,3.4-24.3,10.3-31.6c6.9-7.3,16.9-10.9,30.1-10.9c13.2,0,23.2,3.6,30,10.8
					C1420.7,876,1424.1,886.6,1424.1,900.6z M1367.1,900.6c0,16,5.6,24,16.7,24c5.7,0,9.9-1.9,12.6-5.8c2.7-3.9,4.1-10,4.1-18.2
					c0-8.3-1.4-14.4-4.2-18.3c-2.8-3.9-6.9-5.9-12.4-5.9C1372.7,876.3,1367.1,884.4,1367.1,900.6z"/>
			</g>
			<g enable-background="new    ">
				<path d="M1527.8,942.1h-49.2v-82.9h49.2v18H1501v13h24.8v18H1501v15.6h26.8V942.1z"/>
			</g>
			<g enable-background="new    ">
				<path d="M1653.7,885.6c0,9.3-2.7,16.4-8.2,21.5c-5.5,5-13.2,7.6-23.3,7.6h-6.3v27.5h-22.4v-82.9h28.7c10.5,0,18.3,2.3,23.6,6.9
					C1651.1,870.7,1653.7,877.2,1653.7,885.6z M1616,896.4h4.1c3.4,0,6-0.9,8-2.8c2-1.9,3-4.5,3-7.8c0-5.6-3.1-8.4-9.3-8.4h-5.8
					V896.4z"/>
			</g>
			<g enable-background="new    ">
				<path d="M1134.6,1058.1v-82.9h22.5v82.9H1134.6z"/>
			</g>
			<g enable-background="new    ">
				<path d="M1266.2,1006l14.3-30.7h24.3l-27.3,50.5v32.4h-22.6v-31.7l-27.3-51.2h24.4L1266.2,1006z"/>
			</g>
			<g enable-background="new    ">
				<path d="M1395.2,1058.1h-22.4v-64.6h-20.2v-18.3h62.8v18.3h-20.2V1058.1z"/>
			</g>
			<g enable-background="new    ">
				<path d="M1548.2,1058.1h-25.9l-16.2-25.9l-16,25.9h-25.3l27.5-42.4l-25.8-40.5h24.8l15,25.6l14.4-25.6h25.6l-26.2,42.2
					L1548.2,1058.1z"/>
			</g>
			<g enable-background="new    ">
				<path d="M1595.6,1058.1v-82.9h22.4v64.8h31.9v18.1H1595.6z"/>
			</g>
			<g enable-background="new    ">
				<path d="M1181.6,1178.1h-22.5v-33.8h-26v33.8h-22.5v-82.9h22.5v30.7h26v-30.7h22.5V1178.1z"/>
			</g>
			<g enable-background="new    ">
				<path d="M1306.5,1178.1h-29.4l-30.3-58.4h-0.5c0.7,9.2,1.1,16.2,1.1,21v37.4h-19.8v-82.9h29.2l30.2,57.6h0.3
					c-0.5-8.4-0.8-15.1-0.8-20.1v-37.5h20V1178.1z"/>
			</g>
			<g enable-background="new    ">
				<path d="M1354.6,1095.2h28.9c11.3,0,19.6,1.7,25.1,5c5.5,3.3,8.2,8.5,8.2,15.6c0,4.6-1.2,8.6-3.6,11.9c-2.4,3.3-5.5,5.4-9.4,6.3
					v0.6c5.1,1.4,8.9,3.6,11.2,6.8c2.3,3.2,3.5,7.3,3.5,12.4c0,7.5-2.8,13.4-8.5,17.8c-5.6,4.3-13.3,6.5-23.1,6.5h-32.3V1095.2z
					 M1377,1127h6.7c3.2,0,5.7-0.7,7.5-2c1.8-1.3,2.6-3.3,2.6-5.9c0-4.6-3.5-7-10.5-7h-6.3V1127z M1377,1143.4v17.4h7.9
					c7,0,10.5-2.9,10.5-8.8c0-2.8-0.9-4.9-2.8-6.3c-1.9-1.5-4.6-2.2-8.1-2.2H1377z"/>
			</g>
			<g enable-background="new    ">
				<path d="M1496,1148v30.2h-22.4v-82.9h27.2c22.5,0,33.8,8.2,33.8,24.5c0,9.6-4.7,17-14.1,22.3l24.1,36.1h-25.4l-17.6-30.2H1496z
					 M1496,1131.1h4.2c7.8,0,11.7-3.5,11.7-10.4c0-5.7-3.8-8.6-11.5-8.6h-4.4V1131.1z"/>
			</g>
			<g enable-background="new    ">
				<path d="M1641.4,1178.1l-4.1-15.5h-26.9l-4.2,15.5h-24.6l27-83.2h29.9l27.4,83.2H1641.4z M1632.7,1144.2l-3.6-13.6
					c-0.8-3-1.8-6.9-3-11.7c-1.2-4.8-2-8.2-2.4-10.3c-0.3,1.9-1,5.1-2,9.5c-1,4.4-3.2,13.1-6.7,26.1H1632.7z"/>
			</g>
		</g>
	</g>
	<circle fill="#FFF200" stroke="#FFFCD5" stroke-width="10" stroke-miterlimit="10" cx="1527.1" cy="442.8" r="67.4"/>
	<circle fill="#00AEEF" stroke="#C7EAFB" stroke-width="10" stroke-miterlimit="10" cx="1687.3" cy="510.2" r="67.4"/>
	<circle fill="#FFF200" stroke="#FFFCD5" stroke-width="10" stroke-miterlimit="10" cx="1451.4" cy="510.2" r="67.4"/>
	<circle fill="#00AEEF" stroke="#C7EAFB" stroke-width="10" stroke-miterlimit="10" cx="1049.9" cy="1317.5" r="67.4"/>
	<circle fill="#FFF200" stroke="#FFFCD5" stroke-width="10" stroke-miterlimit="10" cx="824.5" cy="1250.1" r="67.4"/>
	<circle fill="#EC008C" stroke="#FAD5E5" stroke-width="10" stroke-miterlimit="10" cx="912.1" cy="1425.4" r="67.4"/>
	<circle fill="#EC008C" stroke="#FAD5E5" stroke-width="10" stroke-miterlimit="10" cx="982.5" cy="1241.8" r="67.4"/>
</g>
</svg>
